<svg xmlns="http://www.w3.org/2000/svg" xmlns:xlink="http://www.w3.org/1999/xlink" width="1000" zoomAndPan="magnify" viewBox="0 0 750 749.999995" height="1000" preserveAspectRatio="xMidYMid meet" version="1.0"><defs><clipPath id="56e50b83d1"><path d="M 60.59375 7.433594 L 689.09375 7.433594 L 689.09375 734 L 60.59375 734 Z M 60.59375 7.433594 " clip-rule="nonzero"/></clipPath></defs><rect x="-75" width="900" fill="#ffffff" y="-74.999999" height="899.999994" fill-opacity="1"/><rect x="-75" width="900" fill="#ffffff" y="-74.999999" height="899.999994" fill-opacity="1"/><g clip-path="url(#56e50b83d1)"><path fill="#585858" d="M 689.398438 552.238281 L 374.992188 733.753906 L 60.59375 552.238281 L 60.59375 189.195312 L 374.992188 7.671875 L 689.398438 189.195312 Z M 689.398438 552.238281 " fill-opacity="1" fill-rule="nonzero"/></g><path fill="#585858" d="M 237.136719 364.933594 L 342.898438 477.835938 L 291.972656 364.933594 Z M 374.992188 495.996094 L 434.25 364.933594 L 315.742188 364.933594 Z M 292.480469 343.199219 L 327.117188 278 L 282.632812 278 L 233.734375 343.199219 Z M 407.085938 477.835938 L 512.855469 364.933594 L 458.011719 364.933594 Z M 317.097656 343.199219 L 432.890625 343.199219 L 398.253906 278 L 351.730469 278 Z M 457.503906 343.199219 L 516.25 343.199219 L 467.355469 278 L 422.875 278 Z M 481.441406 260.683594 L 546.640625 347.609375 C 548.226562 349.648438 548.960938 351.996094 548.847656 354.65625 C 548.730469 357.320312 547.761719 359.605469 545.953125 361.535156 L 382.96875 535.390625 C 380.933594 537.652344 378.277344 538.78125 374.988281 538.78125 C 371.707031 538.78125 369.054688 537.652344 367.011719 535.390625 L 204.027344 361.535156 C 202.21875 359.609375 201.253906 357.320312 201.140625 354.65625 C 201.027344 351.996094 201.757812 349.648438 203.34375 347.609375 L 268.542969 260.683594 C 270.585938 257.738281 273.46875 256.269531 277.203125 256.269531 L 472.789062 256.269531 C 476.515625 256.269531 479.410156 257.742188 481.441406 260.683594 Z M 481.441406 260.683594 " fill-opacity="1" fill-rule="nonzero"/><path stroke-linecap="round" transform="matrix(0, -0.75, 0.75, 0, 451.730453, 524.292306)" fill="none" stroke-linejoin="miter" d="M 14.499118 14.500022 L 53.03037 14.500022 " stroke="#ffffff" stroke-width="29" stroke-opacity="1" stroke-miterlimit="4"/><path stroke-linecap="round" transform="matrix(0, -0.75, 0.75, 0, 275.939579, 524.292306)" fill="none" stroke-linejoin="miter" d="M 14.499118 14.502437 L 53.03037 14.502437 " stroke="#ffffff" stroke-width="29" stroke-opacity="1" stroke-miterlimit="4"/><path stroke-linecap="round" transform="matrix(-0.287509, -0.692704, 0.692704, -0.287509, 477.003459, 497.902964)" fill="none" stroke-linejoin="miter" d="M 14.498062 14.499363 L 388.298104 14.502273 " stroke="#ffffff" stroke-width="29" stroke-opacity="1" stroke-miterlimit="4"/><path stroke-linecap="round" transform="matrix(0.285676, -0.693462, 0.693462, 0.285676, 253.014982, 489.594716)" fill="none" stroke-linejoin="miter" d="M 14.497037 14.498997 L 390.301366 14.500508 " stroke="#ffffff" stroke-width="29" stroke-opacity="1" stroke-miterlimit="4"/><path stroke-linecap="round" transform="matrix(0.75, 0, 0, 0.75, 256.22375, 472.579461)" fill="none" stroke-linejoin="miter" d="M 14.498542 14.498219 L 301.816264 14.498219 " stroke="#ffffff" stroke-width="29" stroke-opacity="1" stroke-miterlimit="4"/><path stroke-linecap="round" transform="matrix(0, -0.75, 0.75, 0, 367.835903, 541.115154)" fill="none" stroke-linejoin="miter" d="M 14.502497 14.500047 L 188.398339 14.500047 " stroke="#ffffff" stroke-width="29" stroke-opacity="1" stroke-miterlimit="4"/><path stroke-linecap="round" transform="matrix(0.30116, -0.686879, 0.686879, 0.30116, 412.729327, 342.186975)" fill="none" stroke-linejoin="miter" d="M 14.499716 14.498378 L 127.7609 14.497913 " stroke="#ffffff" stroke-width="29" stroke-opacity="1" stroke-miterlimit="4"/><path stroke-linecap="round" transform="matrix(-0.313831, -0.681183, 0.681183, -0.313831, 317.74197, 351.103332)" fill="none" stroke-linejoin="miter" d="M 14.498845 14.502028 L 129.011255 14.502117 " stroke="#ffffff" stroke-width="29" stroke-opacity="1" stroke-miterlimit="4"/><path stroke-linecap="round" transform="matrix(0.75, 0.0000629182, -0.0000629182, 0.75, 193.171913, 449.165494)" fill="none" stroke-linejoin="miter" d="M 14.501166 14.502084 L 110.365754 14.49925 " stroke="#ffffff" stroke-width="29" stroke-opacity="1" stroke-miterlimit="4"/><path stroke-linecap="round" transform="matrix(0.75, 0.0000629182, -0.0000629182, 0.75, 462.611284, 449.16943)" fill="none" stroke-linejoin="miter" d="M 14.498672 14.502044 L 110.36326 14.49921 " stroke="#ffffff" stroke-width="29" stroke-opacity="1" stroke-miterlimit="4"/><path stroke-linecap="round" transform="matrix(0.282845, -0.694621, 0.694621, 0.282845, 190.12429, 465.796317)" fill="none" stroke-linejoin="miter" d="M 14.501315 14.498494 L 303.744769 14.500629 " stroke="#ffffff" stroke-width="29" stroke-opacity="1" stroke-miterlimit="4"/><path stroke-linecap="round" transform="matrix(-0.287895, -0.692543, 0.692543, -0.287895, 539.785296, 474.072189)" fill="none" stroke-linejoin="miter" d="M 14.50062 14.499758 L 304.932232 14.500687 " stroke="#ffffff" stroke-width="29" stroke-opacity="1" stroke-miterlimit="4"/></svg>